<svg width="800" height="600" xmlns="http://www.w3.org/2000/svg"><rect width="100%" height="100%" fill="#ffffff"/><line x1="400" y1="50" x2="200" y2="200" 
                stroke="#333333" 
                stroke-width="2"/><polygon points="200,200 211,198 205,190" 
                fill="#333333"/><line x1="400" y1="50" x2="400" y2="200" 
                stroke="#333333" 
                stroke-width="2"/><polygon points="400,200 405,190 395,190" 
                fill="#333333"/><line x1="400" y1="50" x2="600" y2="200" 
                stroke="#333333" 
                stroke-width="2"/><polygon points="600,200 595,190 589,198" 
                fill="#333333"/><line x1="200" y1="200" x2="200" y2="350" 
                stroke="#333333" 
                stroke-width="2"/><polygon points="200,350 205,340 195,340" 
                fill="#333333"/><line x1="400" y1="200" x2="400" y2="350" 
                stroke="#333333" 
                stroke-width="2"/><polygon points="400,350 405,340 395,340" 
                fill="#333333"/><line x1="600" y1="200" x2="600" y2="350" 
                stroke="#333333" 
                stroke-width="2"/><polygon points="600,350 605,340 595,340" 
                fill="#333333"/><rect x="350" y="25" 
              width="100" height="50" 
              rx="5" ry="5"
              fill="#e3f2fd" 
              stroke="#2196f3" 
              stroke-width="2"/><text x="400" y="55" text-anchor="middle" 
                fill="#000000" 
                font-size="14" 
                font-family="Arial, sans-serif">User Login</text><rect x="150" y="175" 
              width="100" height="50" 
              rx="5" ry="5"
              fill="#fff3e0" 
              stroke="#ff9800" 
              stroke-width="2"/><text x="200" y="205" text-anchor="middle" 
                fill="#000000" 
                font-size="14" 
                font-family="Arial, sans-serif">Valid Credentials?</text><rect x="350" y="175" 
              width="100" height="50" 
              rx="5" ry="5"
              fill="#fff3e0" 
              stroke="#ff9800" 
              stroke-width="2"/><text x="400" y="205" text-anchor="middle" 
                fill="#000000" 
                font-size="14" 
                font-family="Arial, sans-serif">Invalid Password?</text><rect x="550" y="175" 
              width="100" height="50" 
              rx="5" ry="5"
              fill="#fff3e0" 
              stroke="#ff9800" 
              stroke-width="2"/><text x="600" y="205" text-anchor="middle" 
                fill="#000000" 
                font-size="14" 
                font-family="Arial, sans-serif">Account Locked?</text><rect x="150" y="325" 
              width="100" height="50" 
              rx="5" ry="5"
              fill="#e8f5e8" 
              stroke="#4caf50" 
              stroke-width="2"/><text x="200" y="355" text-anchor="middle" 
                fill="#000000" 
                font-size="14" 
                font-family="Arial, sans-serif">Grant Access</text><rect x="350" y="325" 
              width="100" height="50" 
              rx="5" ry="5"
              fill="#e8f5e8" 
              stroke="#4caf50" 
              stroke-width="2"/><text x="400" y="355" text-anchor="middle" 
                fill="#000000" 
                font-size="14" 
                font-family="Arial, sans-serif">Show Error</text><rect x="550" y="325" 
              width="100" height="50" 
              rx="5" ry="5"
              fill="#e8f5e8" 
              stroke="#4caf50" 
              stroke-width="2"/><text x="600" y="355" text-anchor="middle" 
                fill="#000000" 
                font-size="14" 
                font-family="Arial, sans-serif">Contact Admin</text></svg>